<svg xmlns="http://www.w3.org/2000/svg" width="98" height="53" viewBox="0 0 98 53" fill="none">
<path fill-rule="evenodd" clip-rule="evenodd" d="M36.8445 1C36.2922 1 35.8445 1.44772 35.8445 2V6.27495C35.8445 6.82724 36.2922 7.27495 36.8445 7.27495H73.1714C83.2984 7.27495 91.2519 15.0716 91.2519 25.1644C91.2519 25.45 91.4834 25.6815 91.7689 25.6815H97.0311C97.3167 25.6815 97.5482 25.45 97.5482 25.1644C97.5482 11.6752 86.7062 1 73.1714 1H36.8445Z" fill="#6B7B84" stroke="#80949F" stroke-width="0.5"/>
<path fill-rule="evenodd" clip-rule="evenodd" d="M7.38075 26.1197C7.38075 25.8776 7.18452 25.6814 6.94246 25.6814H1.43829C1.19623 25.6814 1 25.8776 1 26.1197C1 39.7691 11.2232 51.0385 24.4427 51.7761L66.7843 51.8138C67.3369 51.8143 67.7852 51.3665 67.7852 50.8138V46.2342C67.7852 45.6819 67.3375 45.2342 66.7852 45.2342H25.9005C15.6642 45.2059 7.38075 36.6905 7.38075 26.1197Z" fill="#6B7B84" stroke="#80949F" stroke-width="0.5"/>
<path fill-rule="evenodd" clip-rule="evenodd" d="M28.4154 40.1999C31.1543 40.1999 33.4356 39.6678 35.6888 38.573L35.8444 38.4274V30.593L35.0012 31.6724C33.3788 33.4453 31.1999 34.4212 28.7347 34.4212C24.1431 34.4212 19.5315 31.4533 19.5315 25.7813C19.5315 21.4949 22.712 16.9395 28.5733 16.9395C29.7428 16.9395 32.5869 17.216 34.9971 19.7755L35.8444 20.8192V13.0202L35.6957 12.8728C33.3998 11.7222 31.0582 11.1628 28.3876 11.1628C23.8206 11.1628 20.256 12.3652 17.4178 14.8364C15.6174 16.3852 12.6147 19.856 12.6147 25.6997C12.6147 30.0205 14.1533 33.395 17.4408 36.3218C20.4991 39.0037 23.8902 40.1999 28.4154 40.1999Z" fill="#6B7B84"/>
<path d="M28.4154 40.1999C31.1543 40.1999 33.4356 39.6678 35.6888 38.573L35.8444 38.4274V30.593L35.0012 31.6724C33.3788 33.4453 31.1999 34.4212 28.7347 34.4212C24.1431 34.4212 19.5315 31.4533 19.5315 25.7813C19.5315 21.4949 22.712 16.9395 28.5733 16.9395C29.7428 16.9395 32.5869 17.216 34.9971 19.7755L35.8444 20.8192V13.0202L35.6957 12.8728C33.3998 11.7222 31.0582 11.1628 28.3876 11.1628C23.8206 11.1628 20.256 12.3652 17.4178 14.8364C15.6174 16.3852 12.6147 19.856 12.6147 25.6997C12.6147 30.0205 14.1533 33.395 17.4408 36.3218C20.4991 39.0037 23.8902 40.1999 28.4154 40.1999" stroke="#80949F" stroke-width="0.5"/>
<path fill-rule="evenodd" clip-rule="evenodd" d="M48.1852 17.6962H49.5495C50.801 17.6962 52.2273 17.7645 53.3069 18.5003C53.834 18.8769 54.7185 19.7486 54.7185 21.3319C54.7185 22.5019 54.2015 23.5511 53.3474 24.2057C52.2524 25.0005 50.9508 24.955 49.905 24.955H48.1852V17.6962ZM51.2509 30.2253C54.4823 30.2253 57.0117 29.2933 58.7682 27.5373C60.9289 25.381 61.2519 22.4148 61.2519 20.851C61.2519 19.1777 60.8552 15.9141 58.1951 13.551C56.0147 11.6403 53.6881 11.1628 50.4063 11.1628H41.6519V40.1999H48.3104V30.2253H51.2509Z" fill="#6B7B84"/>
<path d="M48.1852 17.6962V17.4462H47.9352V17.6962H48.1852ZM53.3069 18.5003L53.4522 18.2968L53.4477 18.2937L53.3069 18.5003ZM53.3474 24.2057L53.4943 24.4081L53.4995 24.4041L53.3474 24.2057ZM48.1852 24.955H47.9352V25.205H48.1852V24.955ZM58.7682 27.5373L58.5916 27.3603L58.5915 27.3605L58.7682 27.5373ZM58.1951 13.551L58.3612 13.3641L58.3599 13.3629L58.1951 13.551ZM41.6519 11.1628V10.9128H41.4019V11.1628H41.6519ZM41.6519 40.1999H41.4019V40.4499H41.6519V40.1999ZM48.3104 40.1999V40.4499H48.5604V40.1999H48.3104ZM48.3104 30.2253V29.9753H48.0604V30.2253H48.3104ZM48.1852 17.9462H49.5495V17.4462H48.1852V17.9462ZM49.5495 17.9462C50.8067 17.9462 52.1579 18.0197 53.1661 18.7069L53.4477 18.2937C52.2968 17.5092 50.7952 17.4462 49.5495 17.4462V17.9462ZM53.1616 18.7037C53.6492 19.0521 54.4685 19.8569 54.4685 21.3319H54.9685C54.9685 19.6403 54.0189 18.7017 53.4522 18.2969L53.1616 18.7037ZM54.4685 21.3319C54.4685 22.4279 53.9848 23.4022 53.1953 24.0073L53.4995 24.4041C54.4181 23.7 54.9685 22.576 54.9685 21.3319H54.4685ZM53.2006 24.0034C52.1832 24.7419 50.9712 24.705 49.905 24.705V25.205C50.9305 25.205 52.3216 25.2592 53.4943 24.408L53.2006 24.0034ZM49.905 24.705H48.1852V25.205H49.905V24.705ZM48.4352 24.955V17.6962H47.9352V24.955H48.4352ZM51.2509 30.4753C54.5308 30.4753 57.1303 29.5282 58.945 27.7141L58.5915 27.3605C56.8931 29.0583 54.4338 29.9753 51.2509 29.9753V30.4753ZM58.9448 27.7143C61.1769 25.4868 61.5019 22.4362 61.5019 20.851H61.0019C61.0019 22.3934 60.681 25.2753 58.5916 27.3603L58.9448 27.7143ZM61.5019 20.851C61.5019 19.1496 61.1002 15.7973 58.3612 13.3641L58.0291 13.7379C60.6102 16.0308 61.0019 19.2058 61.0019 20.851H61.5019ZM58.3599 13.3629C56.1139 11.3949 53.7157 10.9128 50.4063 10.9128V11.4128C53.6606 11.4128 55.9154 11.8857 58.0304 13.739L58.3599 13.3629ZM50.4063 10.9128H41.6519V11.4128H50.4063V10.9128ZM41.4019 11.1628V40.1999H41.9019V11.1628H41.4019ZM41.6519 40.4499H48.3104V39.9499H41.6519V40.4499ZM48.5604 40.1999V30.2253H48.0604V40.1999H48.5604ZM48.3104 30.4753H51.2509V29.9753H48.3104V30.4753Z" fill="#80949F"/>
<path fill-rule="evenodd" clip-rule="evenodd" d="M81.2269 24.8761C79.7793 23.5935 77.7585 22.85 75.465 22.0788C73.8308 21.5101 72.9304 21.1969 72.3302 20.6496C71.8564 20.2474 71.6451 19.8108 71.6451 19.2337C71.6451 17.9696 72.504 16.6188 74.9153 16.6188C76.554 16.6188 77.9261 17.3195 78.9936 18.7005L79.4174 19.2489L82.9337 14.773L82.6131 14.452C80.4626 12.2999 77.6288 11.1628 74.4179 11.1628C67.9396 11.1628 65.0397 15.3774 65.0397 19.5543C65.0397 21.7957 65.839 23.6035 67.4106 24.9249C68.8176 26.1309 70.5335 26.8066 72.1793 27.3581L72.3654 27.4198C73.8269 27.9029 75.3385 28.4029 76.2413 29.2109C76.8694 29.788 77.1493 30.4151 77.1493 31.2442C77.1493 33.1442 75.653 34.4212 73.426 34.4212C71.6656 34.4212 69.3475 33.5583 68.1211 31.1371L67.8003 30.5028L63.4297 34.5485L63.6874 34.9131C65.0819 36.8875 68.2284 40.1999 73.6333 40.1999C79.593 40.1999 83.7556 36.3683 83.7556 30.8826C83.7556 27.7449 82.379 25.8827 81.2269 24.8761Z" fill="#6B7B84"/>
<path d="M81.2269 24.8761C79.7793 23.5935 77.7585 22.85 75.465 22.0788C73.8308 21.5101 72.9304 21.1969 72.3302 20.6496C71.8564 20.2474 71.6451 19.8108 71.6451 19.2337C71.6451 17.9696 72.504 16.6188 74.9153 16.6188C76.554 16.6188 77.9261 17.3195 78.9936 18.7005L79.4174 19.2489L82.9337 14.773L82.6131 14.452C80.4626 12.2999 77.6288 11.1628 74.4179 11.1628C67.9396 11.1628 65.0397 15.3774 65.0397 19.5543C65.0397 21.7957 65.839 23.6035 67.4106 24.9249C68.8176 26.1309 70.5335 26.8066 72.1793 27.3581L72.3654 27.4198C73.8269 27.9029 75.3385 28.4029 76.2413 29.2109C76.8694 29.788 77.1493 30.4151 77.1493 31.2442C77.1493 33.1442 75.653 34.4212 73.426 34.4212C71.6656 34.4212 69.3475 33.5583 68.1211 31.1371L67.8003 30.5028L63.4297 34.5485L63.6874 34.9131C65.0819 36.8875 68.2284 40.1999 73.6333 40.1999C79.593 40.1999 83.7556 36.3683 83.7556 30.8826C83.7556 27.7449 82.379 25.8827 81.2269 24.8761" stroke="#80949F" stroke-width="0.5"/>
</svg>