<svg width="304" height="40" viewBox="0 0 304 40" fill="none" xmlns="http://www.w3.org/2000/svg">
<path fill-rule="evenodd" clip-rule="evenodd" d="M4 4C4 1.79086 2.20914 0 0 0V40C2.20914 40 4 38.2091 4 36V4Z" fill="#41F6D7"/>
<path d="M16.084 10.1C15.9907 9.89467 15.9813 9.72667 16.056 9.596C16.1493 9.46533 16.2987 9.4 16.504 9.4H19.864C20.144 9.4 20.3773 9.46533 20.564 9.596C20.7507 9.72667 20.8907 9.89467 20.984 10.1L25.324 19.48H25.604L29.384 10.1C29.5707 9.63333 29.944 9.4 30.504 9.4H33.864C34.0693 9.4 34.2093 9.46533 34.284 9.596C34.3773 9.72667 34.3773 9.89467 34.284 10.1L27.844 24.66C27.5267 25.388 27.172 26.0413 26.78 26.62C26.4067 27.1987 25.9587 27.684 25.436 28.076C24.9133 28.468 24.316 28.7667 23.644 28.972C22.972 29.1773 22.1787 29.28 21.264 29.28H20.144C19.6773 29.28 19.444 29.0467 19.444 28.58V26.06C19.444 25.5933 19.6773 25.36 20.144 25.36H21.264C21.7493 25.36 22.132 25.2387 22.412 24.996C22.692 24.7347 22.8693 24.3893 22.944 23.96L16.084 10.1ZM46.5128 19.9C46.5128 20.3667 46.2795 20.6 45.8128 20.6H43.2928C42.8261 20.6 42.5928 20.3667 42.5928 19.9V19.34C42.5928 18.9107 42.4621 18.5747 42.2008 18.332C41.9581 18.0707 41.6221 17.94 41.1928 17.94H38.5328C38.1035 17.94 37.7581 18.0707 37.4968 18.332C37.2541 18.5747 37.1328 18.9107 37.1328 19.34V24.38C37.1328 24.8093 37.2541 25.1547 37.4968 25.416C37.7581 25.6587 38.1035 25.78 38.5328 25.78H41.1928C41.6221 25.78 41.9581 25.6587 42.2008 25.416C42.4621 25.1547 42.5928 24.8093 42.5928 24.38V23.82C42.5928 23.3533 42.8261 23.12 43.2928 23.12H45.8128C46.2795 23.12 46.5128 23.3533 46.5128 23.82V24.94C46.5128 26.34 46.1395 27.4133 45.3928 28.16C44.6461 28.9067 43.5728 29.28 42.1728 29.28H37.5528C36.1528 29.28 35.0795 28.9067 34.3328 28.16C33.5861 27.4133 33.2128 26.34 33.2128 24.94V18.78C33.2128 17.38 33.5861 16.3067 34.3328 15.56C35.0795 14.8133 36.1528 14.44 37.5528 14.44H42.1728C43.5728 14.44 44.6461 14.8133 45.3928 15.56C46.1395 16.3067 46.5128 17.38 46.5128 18.78V19.9ZM53.7517 25.22C53.4904 26.564 52.9771 27.5813 52.2117 28.272C51.4464 28.944 50.3264 29.28 48.8517 29.28H48.0117C47.5451 29.28 47.3117 29.0467 47.3117 28.58V26.48C47.3117 26.0133 47.5451 25.78 48.0117 25.78H48.4317C48.8611 25.78 49.2064 25.6587 49.4677 25.416C49.7291 25.1733 49.8971 24.8747 49.9717 24.52L51.9317 15.42C52.0251 14.9533 52.3517 14.72 52.9117 14.72H61.4517C61.9184 14.72 62.1517 14.9533 62.1517 15.42V28.3C62.1517 28.7667 61.9184 29 61.4517 29H58.9317C58.4651 29 58.2317 28.7667 58.2317 28.3V18.22H55.1517L53.7517 25.22ZM73.3913 15.42C73.466 15.2147 73.578 15.0467 73.7273 14.916C73.8767 14.7853 74.0913 14.72 74.3713 14.72H77.1713C77.638 14.72 77.778 14.9533 77.5913 15.42L72.2713 29.84C71.786 31.1653 71.0673 32.2387 70.1153 33.06C69.1633 33.9 67.922 34.32 66.3913 34.32H65.5513C65.0847 34.32 64.8513 34.0867 64.8513 33.62V31.52C64.8513 31.0533 65.0847 30.82 65.5513 30.82H66.3913C66.8767 30.82 67.2593 30.7173 67.5393 30.512C67.8193 30.3253 68.034 30.1013 68.1833 29.84C68.3513 29.56 68.454 29.2333 68.4913 28.86L63.3113 15.42C63.1247 14.9533 63.2647 14.72 63.7313 14.72H66.5313C66.8113 14.72 67.026 14.7853 67.1753 14.916C67.3247 15.0467 67.4367 15.2147 67.5113 15.42L70.4513 23.68H70.7313L73.3913 15.42ZM78.7448 15.42C78.7448 14.9533 78.9782 14.72 79.4448 14.72H88.9648C89.4315 14.72 89.6648 14.9533 89.6648 15.42V17.52C89.6648 17.9867 89.4315 18.22 88.9648 18.22H82.6648V28.3C82.6648 28.7667 82.4315 29 81.9648 29H79.4448C78.9782 29 78.7448 28.7667 78.7448 28.3V15.42ZM99.9838 15.42C100.133 15.2147 100.282 15.0467 100.432 14.916C100.6 14.7853 100.824 14.72 101.104 14.72H103.764C104.23 14.72 104.464 14.9533 104.464 15.42V28.3C104.464 28.7667 104.23 29 103.764 29H101.244C100.777 29 100.544 28.7667 100.544 28.3V20.88H100.264L95.5038 28.3C95.3544 28.5053 95.1958 28.6733 95.0278 28.804C94.8784 28.9347 94.6638 29 94.3838 29H91.7238C91.2571 29 91.0238 28.7667 91.0238 28.3V15.42C91.0238 14.9533 91.2571 14.72 91.7238 14.72H94.2438C94.7104 14.72 94.9438 14.9533 94.9438 15.42V22.84H95.2238L99.9838 15.42ZM121.452 15.42C121.601 15.2147 121.75 15.0467 121.9 14.916C122.068 14.7853 122.292 14.72 122.572 14.72H125.232C125.698 14.72 125.932 14.9533 125.932 15.42V28.3C125.932 28.7667 125.698 29 125.232 29H122.712C122.245 29 122.012 28.7667 122.012 28.3V20.88H121.732L116.972 28.3C116.822 28.5053 116.664 28.6733 116.496 28.804C116.346 28.9347 116.132 29 115.852 29H113.192C112.725 29 112.492 28.7667 112.492 28.3V15.42C112.492 14.9533 112.725 14.72 113.192 14.72H115.712C116.178 14.72 116.412 14.9533 116.412 15.42V22.84H116.692L121.452 15.42ZM147.26 19.9C147.26 20.3667 147.026 20.6 146.56 20.6H144.04C143.573 20.6 143.34 20.3667 143.34 19.9V19.34C143.34 18.9107 143.209 18.5747 142.948 18.332C142.705 18.0707 142.369 17.94 141.94 17.94H139.28C138.85 17.94 138.505 18.0707 138.244 18.332C138.001 18.5747 137.88 18.9107 137.88 19.34V24.38C137.88 24.8093 138.001 25.1547 138.244 25.416C138.505 25.6587 138.85 25.78 139.28 25.78H141.94C142.369 25.78 142.705 25.6587 142.948 25.416C143.209 25.1547 143.34 24.8093 143.34 24.38V23.82C143.34 23.3533 143.573 23.12 144.04 23.12H146.56C147.026 23.12 147.26 23.3533 147.26 23.82V24.94C147.26 26.34 146.886 27.4133 146.14 28.16C145.393 28.9067 144.32 29.28 142.92 29.28H138.3C136.9 29.28 135.826 28.9067 135.08 28.16C134.333 27.4133 133.96 26.34 133.96 24.94V18.78C133.96 17.38 134.333 16.3067 135.08 15.56C135.826 14.8133 136.9 14.44 138.3 14.44H142.92C144.32 14.44 145.393 14.8133 146.14 15.56C146.886 16.3067 147.26 17.38 147.26 18.78V19.9ZM158.139 25.78C158.699 25.78 158.979 25.5 158.979 24.94C158.979 24.4733 159.212 24.24 159.679 24.24H162.199C162.665 24.24 162.899 24.4733 162.899 24.94C162.899 26.34 162.525 27.4133 161.779 28.16C161.032 28.9067 159.959 29.28 158.559 29.28H154.079C152.679 29.28 151.605 28.9067 150.859 28.16C150.112 27.4133 149.739 26.34 149.739 24.94V18.78C149.739 17.38 150.112 16.3067 150.859 15.56C151.605 14.8133 152.679 14.44 154.079 14.44H158.699C160.099 14.44 161.172 14.8133 161.919 15.56C162.665 16.3067 163.039 17.38 163.039 18.78V22.42C163.039 22.8867 162.805 23.12 162.339 23.12H153.659V24.38C153.659 24.8093 153.78 25.1547 154.023 25.416C154.284 25.6587 154.629 25.78 155.059 25.78H158.139ZM153.659 20.04H159.119V19.2C159.119 18.7707 158.988 18.4347 158.727 18.192C158.484 17.9307 158.148 17.8 157.719 17.8H155.059C154.629 17.8 154.284 17.9307 154.023 18.192C153.78 18.4347 153.659 18.7707 153.659 19.2V20.04ZM174.751 14.44C176.151 14.44 177.224 14.8133 177.971 15.56C178.718 16.3067 179.091 17.38 179.091 18.78V24.66C179.091 26.06 178.718 27.1333 177.971 27.88C177.224 28.6267 176.151 29 174.751 29H169.711V33.62C169.711 34.0867 169.478 34.32 169.011 34.32H166.491C166.024 34.32 165.791 34.0867 165.791 33.62V15.42C165.791 14.9533 166.024 14.72 166.491 14.72H169.011C169.478 14.72 169.711 14.9533 169.711 15.42V16.12H169.991C170.047 15.8027 170.178 15.5227 170.383 15.28C170.551 15.0747 170.784 14.888 171.083 14.72C171.4 14.5333 171.83 14.44 172.371 14.44H174.751ZM173.771 25.5C174.2 25.5 174.536 25.3787 174.779 25.136C175.04 24.8747 175.171 24.5293 175.171 24.1V19.34C175.171 18.9107 175.04 18.5747 174.779 18.332C174.536 18.0707 174.2 17.94 173.771 17.94H171.391C170.906 17.94 170.504 18.0987 170.187 18.416C169.87 18.7333 169.711 19.1347 169.711 19.62V25.5H173.771ZM189.683 14.72C191.083 14.72 192.157 15.084 192.903 15.812C193.65 16.5213 194.023 17.5107 194.023 18.78C194.023 19.2653 193.939 19.6667 193.771 19.984C193.622 20.3013 193.445 20.5627 193.239 20.768C193.015 20.992 192.763 21.1693 192.483 21.3V21.58C192.931 21.692 193.323 21.8787 193.659 22.14C193.958 22.364 194.229 22.6907 194.471 23.12C194.733 23.5307 194.863 24.0907 194.863 24.8C194.863 26.144 194.49 27.18 193.743 27.908C192.997 28.636 191.923 29 190.523 29H182.543C182.077 29 181.843 28.7667 181.843 28.3V15.42C181.843 14.9533 182.077 14.72 182.543 14.72H189.683ZM190.943 24.52C190.943 23.7733 190.57 23.4 189.823 23.4H185.763V25.64H189.823C190.57 25.64 190.943 25.2667 190.943 24.52ZM190.103 19.06C190.103 18.78 190.01 18.5467 189.823 18.36C189.637 18.1733 189.403 18.08 189.123 18.08H185.763V20.04H189.123C189.403 20.04 189.637 19.9467 189.823 19.76C190.01 19.5733 190.103 19.34 190.103 19.06ZM206.035 15.42C206.185 15.2147 206.334 15.0467 206.483 14.916C206.651 14.7853 206.875 14.72 207.155 14.72H209.815C210.282 14.72 210.515 14.9533 210.515 15.42V28.3C210.515 28.7667 210.282 29 209.815 29H207.295C206.829 29 206.595 28.7667 206.595 28.3V20.88H206.315L201.555 28.3C201.406 28.5053 201.247 28.6733 201.079 28.804C200.93 28.9347 200.715 29 200.435 29H197.775C197.309 29 197.075 28.7667 197.075 28.3V15.42C197.075 14.9533 197.309 14.72 197.775 14.72H200.295C200.762 14.72 200.995 14.9533 200.995 15.42V22.84H201.275L206.035 15.42ZM226.564 19.9C226.564 20.3667 226.331 20.6 225.864 20.6H223.344C222.878 20.6 222.644 20.3667 222.644 19.9V19.34C222.644 18.9107 222.514 18.5747 222.252 18.332C222.01 18.0707 221.674 17.94 221.244 17.94H218.584C218.155 17.94 217.81 18.0707 217.548 18.332C217.306 18.5747 217.184 18.9107 217.184 19.34V24.38C217.184 24.8093 217.306 25.1547 217.548 25.416C217.81 25.6587 218.155 25.78 218.584 25.78H221.244C221.674 25.78 222.01 25.6587 222.252 25.416C222.514 25.1547 222.644 24.8093 222.644 24.38V23.82C222.644 23.3533 222.878 23.12 223.344 23.12H225.864C226.331 23.12 226.564 23.3533 226.564 23.82V24.94C226.564 26.34 226.191 27.4133 225.444 28.16C224.698 28.9067 223.624 29.28 222.224 29.28H217.604C216.204 29.28 215.131 28.9067 214.384 28.16C213.638 27.4133 213.264 26.34 213.264 24.94V18.78C213.264 17.38 213.638 16.3067 214.384 15.56C215.131 14.8133 216.204 14.44 217.604 14.44H222.224C223.624 14.44 224.698 14.8133 225.444 15.56C226.191 16.3067 226.564 17.38 226.564 18.78V19.9ZM232.263 14.72C232.73 14.72 232.963 14.9533 232.963 15.42V18.92H236.743C238.143 18.92 239.217 19.2933 239.963 20.04C240.71 20.7867 241.083 21.86 241.083 23.26V24.66C241.083 26.06 240.71 27.1333 239.963 27.88C239.217 28.6267 238.143 29 236.743 29H229.743C229.277 29 229.043 28.7667 229.043 28.3V15.42C229.043 14.9533 229.277 14.72 229.743 14.72H232.263ZM237.163 23.68C237.163 23.2507 237.033 22.9147 236.771 22.672C236.529 22.4107 236.193 22.28 235.763 22.28H232.963V25.64H235.763C236.193 25.64 236.529 25.5187 236.771 25.276C237.033 25.0147 237.163 24.6693 237.163 24.24V23.68ZM245.983 14.72C246.45 14.72 246.683 14.9533 246.683 15.42V28.3C246.683 28.7667 246.45 29 245.983 29H243.463C242.997 29 242.763 28.7667 242.763 28.3V15.42C242.763 14.9533 242.997 14.72 243.463 14.72H245.983Z" fill="#1B1C21"/>
</svg>

